<?xml version="1.0" encoding="UTF-8" ?>
<svg width="42px" height="69px" viewBox="0 0 42 69" version="1.1" xmlns="http://www.w3.org/2000/svg" xmlns:xlink="http://www.w3.org/1999/xlink">
    <g id="Assets" stroke="none" stroke-width="1" fill="none" fill-rule="evenodd">
        <g id="Assets/Yellow-Logo" fill="#FFDE16" fill-rule="nonzero">
            <path d="M0,0 L42,0 L42,0.16638122 L42,14.6897539 L42,47.8304689 L20.9998634,69 L0,47.8304689 L0,14.6897539 L0,0.16638122 L0,0 Z M22.7075475,19.18 L22.66,62.7 L38.3132313,46.8478019 L22.7075475,19.18 Z M19.4358669,19.18 L3.69,46.8749211 L19.3880462,62.7 L19.4358669,19.18 Z M38.7173125,40.828 L38.7173125,29.5123716 L26.79,19.778 L38.7173125,40.828 Z M3.28,29.4660756 L3.28,40.83 L15.3073261,19.78 L3.28,29.4660756 Z M38.7151728,25.35 L38.7151728,14.69 L33.7620372,14.69 L25.65,14.69 L38.7151728,25.35 Z M8.23313567,14.69 L3.28,14.69 L3.28,25.35 L16.3645744,14.69 L8.23313567,14.69 Z M11.65,11.38 L30.3435374,11.38 C29.5650157,6.89198447 25.6699481,3.47 20.9966321,3.47 C16.3235893,3.47 12.4285217,6.89198447 11.65,11.38 Z M3.28,11.38 L8.3418937,11.38 C8.74140183,8.25598649 10.2541768,5.4789632 12.468687,3.47 L3.28,3.47 L3.28,11.38 Z M33.6567933,11.31 L38.718687,11.31 L38.718687,3.4 L29.53,3.4 C31.7447834,5.4089632 33.2572851,8.18598649 33.6567933,11.31 Z" id="Shape"></path>
        </g>
    </g>
</svg>